<?xml version="1.0" encoding="UTF-8" standalone="no"?>
<!DOCTYPE svg PUBLIC "-//W3C//DTD SVG 1.1//EN" "http://www.w3.org/Graphics/SVG/1.1/DTD/svg11.dtd">
<svg width="100%" height="100%" viewBox="0 0 648 653" version="1.1" xmlns="http://www.w3.org/2000/svg" xmlns:xlink="http://www.w3.org/1999/xlink" xml:space="preserve" xmlns:serif="http://www.serif.com/" style="fill-rule:evenodd;clip-rule:evenodd;stroke-linejoin:round;stroke-miterlimit:2;">
    <g transform="matrix(0.992132,0,0,1.00611,-351.314,-203.047)">
        <circle cx="681.344" cy="527.214" r="323.473" style="fill:rgb(43,45,66);"/>
    </g>
    <g transform="matrix(1,0,0,1,-190.96,-185.942)">
        <path d="M507.331,186.369C528.199,184.941 549.831,187.249 570.357,190.95C633.175,202.277 681.424,226.62 729.415,268.453C774.004,307.321 809.628,366.539 824.688,423.612C826.648,431.04 830.632,443.21 830.777,450.498C830.793,451.323 830.77,451.315 830.663,452.005C831.507,457.04 833,461.946 833.95,466.964C836.67,481.342 838.748,496.82 838.336,511.48C838.032,597.912 807.309,678.662 746.774,740.958L587.691,580.366C564.971,557.321 541.677,534.862 519.379,511.398L361.046,351.881L315.637,306.469C306.73,297.619 297.015,288.913 288.985,279.287C299.536,270.246 309.146,260.487 320.31,252.097C373.588,212.063 440.416,187.123 507.331,186.369Z" style="fill:rgb(141,153,174);fill-rule:nonzero;"/>
    </g>
    <g transform="matrix(1,0,0,1,-190.96,-185.942)">
        <path d="M523.975,511.257C523.802,483.1 528.357,457.363 540.212,431.655C557.253,394.699 590.787,364.193 628.83,350.218C667.849,335.885 709.326,337.368 747.067,355C775.397,368.235 800.578,390.694 815.948,418.042C822.02,428.847 826.44,440.388 830.663,452.005C831.507,457.04 833,461.946 833.95,466.964C836.67,481.342 838.748,496.82 838.336,511.48C802.114,510.892 765.822,511.335 729.592,511.32L523.975,511.257Z" style="fill:url(#_Linear1);fill-rule:nonzero;"/>
    </g>
    <g transform="matrix(1,0,0,1,-190.96,-185.942)">
        <path d="M288.985,279.287C299.536,270.246 309.146,260.487 320.31,252.097C373.588,212.063 440.416,187.123 507.331,186.369C511.508,186.456 515.666,186.398 519.842,186.295C519.403,214.566 519.737,242.886 519.816,271.161L519.758,363.991C519.759,413.098 518.802,462.304 519.379,511.398L361.046,351.881L315.637,306.469C306.73,297.619 297.015,288.913 288.985,279.287Z" style="fill:rgb(157,161,191);fill-rule:nonzero;"/>
    </g>
    <g transform="matrix(1,0,0,1,-190.96,-185.942)">
        <path d="M295.29,751.154C294.193,750.433 293.117,749.274 292.155,748.365C227.238,687.04 193.68,607.475 191.046,518.636C190.994,516.393 190.966,514.149 190.961,511.906C190.956,509.662 190.974,507.418 191.015,505.175C191.057,502.932 191.122,500.689 191.21,498.447C191.298,496.205 191.409,493.964 191.544,491.724C191.679,489.485 191.838,487.247 192.019,485.01C192.2,482.774 192.405,480.54 192.632,478.307C192.86,476.075 193.111,473.846 193.385,471.619C193.659,469.392 193.956,467.168 194.277,464.947C194.597,462.726 194.94,460.509 195.307,458.296C195.674,456.082 196.063,453.872 196.475,451.667C196.888,449.462 197.323,447.261 197.781,445.064C198.239,442.867 198.72,440.676 199.224,438.489C199.727,436.303 200.254,434.122 200.803,431.946C201.352,429.771 201.924,427.601 202.518,425.438C203.112,423.274 203.729,421.117 204.368,418.966C205.007,416.815 205.668,414.671 206.352,412.534C207.035,410.397 207.741,408.268 208.469,406.145C209.197,404.022 209.947,401.908 210.719,399.801C211.49,397.694 212.284,395.596 213.1,393.505C213.915,391.415 214.752,389.334 215.611,387.261C216.47,385.188 217.35,383.124 218.252,381.069C219.153,379.014 220.076,376.969 221.02,374.934C221.965,372.899 222.93,370.873 223.916,368.858C224.903,366.843 225.91,364.838 226.937,362.844C227.965,360.849 229.014,358.866 230.083,356.893C231.152,354.92 232.242,352.959 233.352,351.009C234.462,349.059 235.592,347.121 236.743,345.195C237.893,343.268 239.063,341.354 240.253,339.452C241.443,337.55 242.653,335.66 243.882,333.783C245.112,331.906 246.361,330.042 247.629,328.191C248.897,326.34 250.184,324.503 251.491,322.678C252.797,320.854 254.122,319.044 255.466,317.247C264.126,305.695 273.92,295.067 283.799,284.562C283.455,291.851 283.918,299.314 283.943,306.625C288.251,311.876 293.594,316.566 298.37,321.418C310.644,333.89 323.221,346.095 335.373,358.68L479.415,505.094L516.851,542.665C523.502,549.331 530.426,555.867 536.749,562.843C548.255,572.828 558.281,585.251 569.051,596.061L600.58,627.302C605.152,631.894 610.107,636.386 614.306,641.305L613.403,641.56C612.775,641.046 612.157,640.531 611.546,639.996C611.247,646.281 612.108,655.57 607.005,660.163C604.119,662.76 588.774,674.539 585.579,676.122C582.516,677.64 576.908,677.181 574.631,679.365C554.021,657.98 532.957,636.999 512.103,615.849C504.184,607.818 495.714,600.168 488.171,591.798C482.502,587.46 477.279,581.028 472.248,575.934C460.371,563.735 448.373,551.657 436.254,539.698C411.915,515.819 388.187,491.357 363.982,467.348L311.184,414.492C302.177,405.419 292.939,396.654 284.144,387.361C283.76,398.34 283.935,409.406 283.763,420.398C288.314,426.179 293.961,431.255 299.143,436.47L326.589,464.013L404.626,542.377L435.692,573.385C441.199,578.913 447.023,584.335 452.184,590.18C462.302,599.058 471.265,609.606 480.881,619.065C509.366,647.367 537.589,675.928 565.551,704.748C566.181,707.208 568.358,708.797 570.144,710.495C571.091,717.653 572.641,724.892 567.973,731.032C563.433,737.004 552.749,750.2 546.447,753.796C544.429,754.947 540.962,755.336 538.675,755.785C536.451,753.256 533.439,749.021 530.172,748.037C527.078,745.649 524.126,741.982 521.36,739.167L502.281,719.791C488.294,706.03 474.406,692.17 460.617,678.209C454.28,671.778 447.675,665.441 441.711,658.664C438.465,656.385 435.305,652.476 432.456,649.64L407.527,624.517L327.586,544.808L300.333,517.476C294.737,511.955 289.221,506.275 283.065,501.369C283.441,512.603 283.212,523.932 283.247,535.176L357.981,609.561C370.487,622.078 384.682,634.994 396.158,648.288L429.21,681.487C435.045,687.355 441.415,693.094 446.811,699.343C451.844,703.512 456.441,708.662 461.089,713.283C471.593,723.708 482.027,734.203 492.391,744.767C514.132,766.078 535.523,787.736 556.564,809.739C563.373,816.754 570.659,823.439 577.248,830.646C566.118,833.498 554.171,834.519 542.745,835.455C494.557,839.403 445.233,834.12 400.02,816.394C393.811,813.959 386.892,811.816 381.124,808.457C380.796,808.266 380.486,808.047 380.171,807.835C374.378,805.952 368.252,802.216 362.894,799.286C338.833,786.127 314.697,770.719 295.29,751.154Z" style="fill:url(#_Linear2);fill-rule:nonzero;"/>
    </g>
    <g transform="matrix(1,0,0,1,-190.96,-185.942)">
        <path d="M295.29,751.154L296.183,750.899C294.719,749.44 290.692,746.251 290.183,744.463C290.701,743.776 290.392,744.043 291.175,743.608C295.196,741.37 293.921,737.255 296.392,734.068C302.209,726.565 309.036,717.803 317.329,712.765C319.956,711.169 323.013,710.39 325.609,708.843C329.263,706.665 332.2,701.524 335.976,699.878C336.748,699.542 338.14,699.893 338.887,699.537C341.976,698.063 346.196,692.037 348.917,689.483C352.544,686.077 357.114,683.475 360.955,680.264C365.945,676.094 370.279,671.078 374.897,666.501C376.197,666.513 378.737,666.65 379.751,665.726C382.139,663.549 385.782,653.437 386.176,650.074C386.469,647.568 386.055,644.997 386.4,642.512C386.531,641.567 386.5,641.218 387.262,640.602C390.361,643.097 392.737,646.384 395.826,648.926L396.158,648.288L429.21,681.487C435.045,687.355 441.415,693.094 446.811,699.343C451.844,703.512 456.441,708.662 461.089,713.283C471.593,723.708 482.027,734.203 492.391,744.767C514.132,766.078 535.523,787.736 556.564,809.739C563.373,816.754 570.659,823.439 577.248,830.646C566.118,833.498 554.171,834.519 542.745,835.455C494.557,839.403 445.233,834.12 400.02,816.394C393.811,813.959 386.892,811.816 381.124,808.457C380.796,808.266 380.486,808.047 380.171,807.835C374.378,805.952 368.252,802.216 362.894,799.286C338.833,786.127 314.697,770.719 295.29,751.154Z" style="fill:rgb(183,183,183);fill-rule:nonzero;"/>
    </g>
    <g transform="matrix(1,0,0,1,-190.96,-185.942)">
        <path d="M441.711,658.664L442.407,658.322C440.814,656.284 438.934,654.561 437.083,652.765C429.455,645.224 421.875,637.636 414.344,630C410.385,626.054 405.796,622.178 402.184,617.944C401.35,616.967 400.683,616.261 400.663,614.939C401.569,614.659 402.65,613.962 403.551,613.843C406.639,613.436 418.309,609.499 420.764,607.551C425.397,603.873 434.689,589.855 435.157,583.877C435.368,581.172 435.166,579.233 433.329,577.158C433.231,577.047 433.129,576.939 433.029,576.829C432.805,575.419 432.708,574.542 433.03,573.119L433.72,572.893C436.928,574.861 447.209,587.226 451.875,590.948L452.184,590.18C462.302,599.058 471.265,609.606 480.881,619.065C509.366,647.367 537.589,675.928 565.551,704.748C566.181,707.208 568.358,708.797 570.144,710.495C571.091,717.653 572.641,724.892 567.973,731.032C563.433,737.004 552.749,750.2 546.447,753.796C544.429,754.947 540.962,755.336 538.675,755.785C536.451,753.256 533.439,749.021 530.172,748.037C527.078,745.649 524.126,741.982 521.36,739.167L502.281,719.791C488.294,706.03 474.406,692.17 460.617,678.209C454.28,671.778 447.675,665.441 441.711,658.664Z" style="fill:rgb(183,183,183);fill-rule:nonzero;"/>
    </g>
    <g transform="matrix(1,0,0,1,-190.96,-185.942)">
        <path d="M488.171,591.798L488.318,591.151C485.466,587.97 482.598,584.802 479.548,581.809C476.524,578.841 472.574,575.779 470.223,572.272C472.753,572.276 475.867,572.581 478.323,572.108C479.169,571.946 478.559,571.837 479.579,572.388L478.625,572.109C479.939,572.301 480.982,571.285 482.05,570.588L481.996,572.009L481.827,570.69L482.248,571.504L482.338,570.494C486.48,569.67 493.158,563.717 495.851,560.42C495.961,560.286 496.067,560.148 496.174,560.012L496.649,559.984L497.341,558.361L497.09,559.345C497.808,558.263 498.796,556.757 499.934,556.118C501.127,555.449 502.429,554.69 503.773,554.46C503.743,555.533 503.643,555.392 504.251,556.427L505.092,556.366C507.029,551.691 511.482,548.72 512.011,543.234C512.11,542.198 512.252,541.491 512.689,540.521L512.836,541.14L513.201,540.754C521.34,547.369 528.13,555.957 535.931,563.035L536.749,562.843C548.255,572.828 558.281,585.251 569.051,596.061L600.58,627.302C605.152,631.894 610.107,636.386 614.306,641.305L613.403,641.56C612.775,641.046 612.157,640.531 611.546,639.996C611.247,646.281 612.108,655.57 607.005,660.163C604.119,662.76 588.774,674.539 585.579,676.122C582.516,677.64 576.908,677.181 574.631,679.365C554.021,657.98 532.957,636.999 512.103,615.849C504.184,607.818 495.714,600.168 488.171,591.798Z" style="fill:rgb(183,183,183);fill-rule:nonzero;"/>
    </g>
    <g transform="matrix(1,0,0,1,-190.96,-185.942)">
        <path d="M574.631,679.365C576.908,677.181 582.516,677.64 585.579,676.122C588.774,674.539 604.119,662.76 607.005,660.163C612.108,655.57 611.247,646.281 611.546,639.996C612.157,640.531 612.775,641.046 613.403,641.56L614.306,641.305C619.011,645.015 623.196,649.938 627.351,654.257C633.528,660.752 639.821,667.132 646.23,673.398L685.154,712.172C699.919,726.608 716.126,741.761 729.473,757.369C715.042,769.755 700.231,780.782 684.088,790.805C658.143,763.798 631.932,737.053 605.454,710.568C595.198,700.181 584.656,689.967 574.631,679.365Z" style="fill:rgb(144,146,170);fill-rule:nonzero;"/>
    </g>
    <g transform="matrix(1,0,0,1,-190.96,-185.942)">
        <path d="M565.551,704.748C579.55,717.204 593.24,732.524 606.664,745.841C611.728,750.866 628.127,765.511 631.069,770.074C642.023,780.503 652.535,791.39 663.562,801.776C654.092,806.224 644.482,810.346 634.733,814.143C624.983,817.94 615.116,821.402 605.132,824.53C602.338,821.602 599.187,818.713 596.691,815.539C585.167,804.862 574.35,793.201 563.249,782.064C552.175,770.954 540.304,759.976 530.172,748.037C533.439,749.021 536.451,753.256 538.675,755.785C540.962,755.336 544.429,754.947 546.447,753.796C552.749,750.2 563.433,737.004 567.973,731.032C572.641,724.892 571.091,717.653 570.144,710.495C568.358,708.797 566.181,707.208 565.551,704.748Z" style="fill:rgb(144,146,170);fill-rule:nonzero;"/>
    </g>
    <defs>
        <linearGradient id="_Linear1" x1="0" y1="0" x2="1" y2="0" gradientUnits="userSpaceOnUse" gradientTransform="matrix(-213.805,-182.577,182.577,-213.805,791.789,562.444)"><stop offset="0" style="stop-color:rgb(176,176,176);stop-opacity:1"/><stop offset="1" style="stop-color:rgb(236,242,244);stop-opacity:1"/></linearGradient>
        <linearGradient id="_Linear2" x1="0" y1="0" x2="1" y2="0" gradientUnits="userSpaceOnUse" gradientTransform="matrix(-238.9,-253.044,253.044,-238.9,408.939,646.219)"><stop offset="0" style="stop-color:rgb(175,175,175);stop-opacity:1"/><stop offset="1" style="stop-color:rgb(237,242,244);stop-opacity:1"/></linearGradient>
    </defs>
</svg>
